<?xml version="1.0" standalone="no"?>
<!DOCTYPE svg PUBLIC "-//W3C//DTD SVG 20010904//EN"
 "http://www.w3.org/TR/2001/REC-SVG-20010904/DTD/svg10.dtd">
<svg version="1.0" xmlns="http://www.w3.org/2000/svg"
 width="160.000000pt" height="160.000000pt" viewBox="0 0 160.000000 160.000000"
 preserveAspectRatio="xMidYMid meet">
<metadata>
Created by potrace 1.14, written by Peter Selinger 2001-2017
</metadata>
<g transform="translate(0.000000,160.000000) scale(0.100000,-0.100000)"
fill="#000000" stroke="none">
<path d="M378 1343 c-8 -10 -41 -68 -73 -130 -32 -61 -96 -164 -142 -229 -83
-116 -88 -129 -84 -204 3 -53 32 -63 123 -46 44 8 108 74 195 204 31 45 62 82
68 82 12 0 40 -26 139 -129 32 -33 65 -61 74 -61 8 0 58 43 109 96 53 54 98
92 103 88 5 -5 34 -72 65 -149 58 -145 123 -272 207 -408 26 -43 48 -80 48
-82 0 -2 18 -30 41 -62 41 -60 96 -97 158 -108 25 -4 33 -1 48 22 10 14 23 43
29 62 10 33 8 40 -26 91 -66 100 -160 269 -214 383 -57 121 -146 323 -146 331
0 3 -20 49 -45 102 -25 53 -45 99 -45 102 -1 4 -11 20 -25 36 l-23 29 -29 -18
c-15 -10 -42 -31 -59 -47 -17 -16 -42 -37 -56 -46 -76 -51 -113 -78 -116 -84
-2 -5 -9 -8 -14 -8 -11 0 -178 122 -208 152 -24 22 -63 48 -76 48 -6 0 -18 -8
-26 -17z"/>
</g>
</svg>
